<svg xmlns="http://www.w3.org/2000/svg" width="14" height="14" viewBox="0 0 14 14">
    <path fill="none" fill-rule="evenodd" stroke="#202020" stroke-width=".5" d="M8.599 9.465c-.16.013-.307-.067-.454-.147a9.357 9.357 0 0 1-3.297-3.244c-.147-.227-.28-.494-.227-.76.094-.508.734-.708.921-1.189.174-.414-.053-.88-.32-1.241A5.718 5.718 0 0 0 3.58 1.375c-.307-.186-.64-.347-1.001-.373C.964.922.87 3.618 1.084 4.672c.227 1.095.774 2.11 1.415 3.03 1.508 2.19 3.577 4.045 6.087 4.926.88.307 1.828.494 2.736.28.454-.106.881-.307 1.201-.654.32-.334.494-.814.414-1.268-.08-.467-.4-.84-.72-1.174a9.526 9.526 0 0 0-1.549-1.282c-.107-.067-.214-.133-.334-.147-.133-.013-.253.054-.374.12-.333.187-.64.414-.907.668-.12.12-.254.24-.414.267-.013.013-.027.027-.04.027"/>
</svg>
