<svg xmlns="http://www.w3.org/2000/svg" xmlns:xlink="http://www.w3.org/1999/xlink" width="15" height="15" viewBox="0 0 15 15">
    <defs>
        <path id="a" d="M7.5 15H0V0h15v15H7.5z"/>
    </defs>
    <g fill="none" fill-rule="evenodd">
        <mask id="b" fill="#fff">
            <use xlink:href="#a"/>
        </mask>
        <path fill="#000" d="M11.152 10.64h2.774a7.15 7.15 0 0 1-4.965 3.859c.549-.392 1.033-.99 1.422-1.74a9.42 9.42 0 0 0 .769-2.12zm-3.477 0h3.123a8.98 8.98 0 0 1-.725 1.956c-.633 1.217-1.473 1.96-2.398 2.044v-4zm-3.473 0h3.124v4c-.926-.083-1.766-.827-2.399-2.044a8.98 8.98 0 0 1-.725-1.956zm-3.128 0h2.774c.19.788.45 1.506.769 2.12.389.748.874 1.347 1.422 1.739a7.15 7.15 0 0 1-4.965-3.86zm10.438-2.966h3.134a7.13 7.13 0 0 1-.556 2.617h-2.856c.17-.812.267-1.694.278-2.617zm-3.837 0h3.488a13.18 13.18 0 0 1-.29 2.617H7.676V7.674zm-3.838 0h3.489v2.617h-3.2a13.193 13.193 0 0 1-.289-2.617zm-3.483 0h3.134c.011.923.108 1.805.278 2.617H.91a7.13 7.13 0 0 1-.556-2.617zm10.88-2.965h2.856c.341.807.534 1.69.556 2.617h-3.134a13.64 13.64 0 0 0-.278-2.617zm-3.56 0h3.2c.174.806.277 1.691.289 2.617H7.675V4.709zm-3.548 0h3.2v2.617H3.837c.012-.926.115-1.81.29-2.617zm-3.216 0h2.856c-.17.813-.267 1.694-.278 2.617H.354c.022-.927.215-1.81.556-2.617zM8.972.501c2.185.456 4 1.907 4.954 3.86h-2.774a9.412 9.412 0 0 0-.769-2.126C9.997 1.49 9.517.89 8.972.5zm-2.944 0c-.545.39-1.025.99-1.411 1.734a9.412 9.412 0 0 0-.769 2.125H1.074A7.152 7.152 0 0 1 6.028.501zM7.675.36c.925.083 1.765.821 2.398 2.038.293.565.542 1.229.725 1.962H7.675v-4zm-.35 0v4H4.203a9.009 9.009 0 0 1 .725-1.962C5.447 1.52 6.097.472 7.326.36zM7.5 0C3.36 0 0 3.36 0 7.5 0 11.64 3.36 15 7.5 15c4.14 0 7.5-3.36 7.5-7.5C15 3.36 11.64 0 7.5 0z" mask="url(#b)"/>
    </g>
</svg>
